HIERARCHY
ROOT hip
{
	OFFSET 0.000000 0.000000 0.000000 
	CHANNELS 6 Xposition Yposition Zposition Xrotation Zrotation Yrotation
	JOINT abdomen
	{
		OFFSET 0.000000 3.402643 0.000000 
		CHANNELS 3 Xrotation Zrotation Yrotation
		JOINT chest
		{
			OFFSET 0.000000 8.438565 -0.680529 
			CHANNELS 3 Xrotation Zrotation Yrotation
			JOINT neck
			{
				OFFSET 0.000000 10.207942 -0.272212 
				CHANNELS 3 Xrotation Zrotation Yrotation
				JOINT head
				{
					OFFSET 0.000000 3.130431 0.000000 
					CHANNELS 3 Xrotation Zrotation Yrotation
					End Site
					{
						OFFSET 0.000000 3.130435 0.000000 
					}
				}
			}
			JOINT lCollar
			{
				OFFSET 3.470700 6.669187 -0.816635 
				CHANNELS 3 Yrotation Zrotation Xrotation
				JOINT lShldr
				{
					OFFSET 3.198488 0.000000 0.000000 
					CHANNELS 3 Zrotation Yrotation Xrotation
					JOINT lForeArm
					{
						OFFSET 10.139888 0.000000 0.000000 
						CHANNELS 3 Yrotation Zrotation Xrotation
						JOINT lHand
						{
							OFFSET 8.370511 0.000000 0.000000 
							CHANNELS 3 Zrotation Yrotation Xrotation
							End Site
							{
								OFFSET 4.083176 0.000000 0.000000 
							}
						}
					}
				}
			}
			JOINT rCollar
			{
				OFFSET -3.470700 6.669187 -0.816635 
				CHANNELS 3 Yrotation Zrotation Xrotation
				JOINT rShldr
				{
					OFFSET -3.198488 0.000000 0.000000 
					CHANNELS 3 Zrotation Yrotation Xrotation
					JOINT rForeArm
					{
						OFFSET -10.139888 0.000000 0.000000 
						CHANNELS 3 Yrotation Zrotation Xrotation
						JOINT rHand
						{
							OFFSET -8.370511 0.000000 0.000000 
							CHANNELS 3 Zrotation Yrotation Xrotation
							End Site
							{
								OFFSET -4.083176 0.000000 0.000000 
							}
						}
					}
				}
			}
		}
	}
	JOINT lThigh
	{
		OFFSET 5.308129 -1.633274 1.361059 
		CHANNELS 3 Xrotation Zrotation Yrotation
		JOINT lShin
		{
			OFFSET -2.041588 -20.007561 0.000000 
			CHANNELS 3 Xrotation Zrotation Yrotation
			JOINT lFoot
			{
				OFFSET 0.000000 -19.190928 -1.224953 
				CHANNELS 3 Xrotation Yrotation Zrotation
				End Site
				{
					OFFSET 0.000000 -2.449906 4.627600 
				}
			}
		}
	}
	JOINT rThigh
	{
		OFFSET -5.308129 -1.633274 1.361059 
		CHANNELS 3 Xrotation Zrotation Yrotation
		JOINT rShin
		{
			OFFSET 2.041588 -20.007561 0.000000 
			CHANNELS 3 Xrotation Zrotation Yrotation
			JOINT rFoot
			{
				OFFSET 0.000000 -19.190928 -1.224953 
				CHANNELS 3 Xrotation Yrotation Zrotation
				End Site
				{
					OFFSET 0.000000 -2.449906 4.627600 
				}
			}
		}
	}
}
MOTION
Frames: 6
Frame Time: 0.016667
-0.204139 71.427734 1.333715 -11.775755 1.552733 0.058837 32.587925 -2.042535 1.671171 -0.607290 2.060210 1.465579 -14.669026 2.134207 -0.451504 12.943116 -4.504015 11.725699 4.059312 24.298893 1.337671 22.285803 -32.162464 -45.000000 -28.197762 5.000000 -45.000000 -26.030451 10.006371 11.893749 -0.386174 -22.933809 1.246416 -38.554581 28.233675 -45.000000 30.154285 -5.000000 -41.285965 24.408220 -19.388052 16.658596 18.628777 6.317901 3.546862 2.719622 -7.589116 -0.702154 -3.516847 9.128201 -6.630104 19.603001 -2.939323 -4.438215 1.277830 4.114379 0.244594 -7.106547 -3.384084 1.347885 
-0.328540 71.411400 1.277177 -11.813633 1.367170 -0.292885 32.609730 -1.947944 1.639042 -0.552303 1.972370 1.358188 -14.884075 2.113433 -0.458232 13.244784 -4.172521 10.839104 4.198249 24.591393 1.356820 21.840219 -31.826254 -45.000000 -27.927845 5.000000 -45.000000 -25.984682 9.833563 12.018292 -0.169720 -23.002100 1.249948 -38.652859 28.455746 -45.000000 30.292545 -5.000000 -40.889141 24.467510 -19.386261 16.428354 18.456945 6.482592 4.303864 3.275899 -7.504363 -0.759208 -3.972601 8.725676 -6.476262 19.506142 -2.792796 -4.029612 1.249009 4.194888 0.271123 -7.042168 -3.309144 1.297498 
-0.457121 71.398323 1.209668 -11.829790 1.171799 -0.654360 32.639881 -1.891481 1.674773 -0.524006 1.952853 1.328900 -15.080062 2.150592 -0.473723 13.557405 -3.942267 10.082216 4.251744 24.786390 1.366886 21.514265 -31.535824 -45.000000 -27.621426 5.000000 -45.000000 -25.860453 9.599656 12.198137 -0.020925 -23.099627 1.254991 -38.730350 28.725887 -45.000000 30.402716 -5.000000 -40.611797 24.310600 -19.404757 16.446814 18.206169 6.678464 5.089688 3.961173 -7.399250 -0.857316 -4.538930 8.359613 -6.292262 19.409447 -2.627076 -3.596946 1.230191 4.302139 0.259112 -6.993635 -3.211422 1.321416 
-0.588485 71.387413 1.134850 -11.852407 0.947122 -0.996119 32.689030 -1.844477 1.760226 -0.533445 1.972381 1.338668 -15.266547 2.216717 -0.493595 13.865456 -3.786447 9.405370 4.258166 24.913136 1.373421 21.269640 -31.277571 -45.000000 -27.288925 5.000000 -45.000000 -25.702814 9.299329 12.381082 0.079753 -23.226395 1.265392 -38.816319 29.015764 -45.000000 30.488390 -5.000000 -40.414726 24.025997 -19.441887 16.621727 17.883646 6.902925 5.880995 4.761069 -7.252258 -0.955427 -5.110409 7.990749 -6.132880 19.290398 -2.402033 -3.171744 1.200071 4.320608 0.227481 -6.927942 -3.181237 1.390240 
-0.719068 71.375793 1.056774 -11.853041 0.732222 -1.337906 32.728504 -1.805767 1.840259 -0.532272 2.001662 1.377722 -15.463007 2.302152 -0.516386 14.120407 -3.649148 8.689586 4.249068 25.058661 1.372131 21.019876 -31.022337 -45.000000 -26.951366 5.000000 -45.000000 -25.560215 9.019072 12.592369 0.180454 -23.353167 1.271956 -38.898808 29.266575 -45.000000 30.560667 -5.000000 -40.234627 23.727131 -19.460072 16.800009 17.537519 7.157963 6.667391 5.588430 -7.113088 -1.064459 -5.722645 7.547233 -6.019654 19.164228 -2.206616 -2.744589 1.180780 4.386529 0.205970 -6.836627 -3.065300 1.455002 
-0.846524 71.361267 0.965670 -11.831325 0.527133 -1.621115 32.777729 -1.786659 1.919745 -0.519048 2.060204 1.465572 -15.641043 2.453710 -0.559040 14.131063 -3.628158 7.817899 4.184504 25.282915 1.387849 20.786131 -30.806499 -45.000000 -26.582157 5.000000 -45.000000 -25.547752 8.780434 12.874479 0.279758 -23.421434 1.275488 -39.044895 29.395044 -45.000000 30.513624 -5.000000 -40.142235 23.390711 -19.453072 17.006310 17.035023 7.371782 7.424619 6.585511 -6.880534 -1.096494 -6.421135 7.114672 -5.911300 18.987736 -2.001262 -2.318569 1.172148 4.479800 0.205248 -6.690791 -3.049788 1.401176 
